# xmcd
#
# Track frame offsets:
#	150
#	16217
#	33122
#	47931
#	65450
#	83923
#	104284
#	121377
#	137179
#	151410
#	168584
#
# Disc length: 2448 seconds
#
# Revision: 0
# Processed by: cddbd v1.5.2PL0 Copyright (c) Steve Scherf et al.
# Submitted via: EasyCDDAExtractor 12.0.1.1
#
DISCID=8d098e0b
DTITLE=Heidi Hauge - Country på Norska
DYEAR=2002
DGENRE=Country
TTITLE0=Alene mot mamma
TTITLE1=Uten deg
TTITLE2=Livets landevei
TTITLE3=Min barndoms grönne dal
TTITLE4=Din samvittighet
TTITLE5=Der elvene møtes
TTITLE6=Mot ingenting
TTITLE7=Luftslott i det blå
TTITLE8=Nidelven
TTITLE9=När du har reist fra meg
TTITLE10=Tenk på hva det gjorde mot meg
EXTD=
EXTT0=
EXTT1=
EXTT2=
EXTT3=
EXTT4=
EXTT5=
EXTT6=
EXTT7=
EXTT8=
EXTT9=
EXTT10=
PLAYORDER=
